<?xml version="1.0" encoding="utf-8" ?>
<svg baseProfile="full" height="300" version="1.1" width="600" xmlns="http://www.w3.org/2000/svg" xmlns:ev="http://www.w3.org/2001/xml-events" xmlns:xlink="http://www.w3.org/1999/xlink"><defs /><rect fill="white" height="300" width="600" x="0" y="0" /><line stroke="#e6d7a5" stroke-width="1" x1="60" x2="560" y1="40.0" y2="40.0" /><line stroke="#e6d7a5" stroke-width="1" x1="60" x2="560" y1="95.0" y2="95.0" /><line stroke="#e6d7a5" stroke-width="1" x1="60" x2="560" y1="150.0" y2="150.0" /><line stroke="#e6d7a5" stroke-width="1" x1="60" x2="560" y1="205.0" y2="205.0" /><line stroke="#e6d7a5" stroke-width="1" x1="60" x2="560" y1="260.0" y2="260.0" /><polyline fill="none" points="60.0,95.0 63.6231884057971,95.0 67.2463768115942,95.0 70.86956521739131,95.0 74.4927536231884,95.0 78.1159420289855,95.0 81.73913043478261,95.0 85.36231884057972,95.0 88.98550724637681,95.0 92.6086956521739,95.0 96.23188405797102,95.0 99.85507246376811,95.0 103.47826086956522,95.0 107.10144927536231,95.0 110.72463768115942,95.0 114.34782608695653,95.0 117.97101449275362,95.0 121.59420289855072,95.0 125.21739130434783,95.0 125.21739130434783,95.0 128.84057971014494,95.0 132.46376811594203,95.0 136.08695652173913,95.0 139.71014492753622,95.0 143.33333333333331,95.0 146.95652173913044,95.0 150.57971014492753,95.0 154.20289855072463,95.0 157.82608695652175,95.0 161.44927536231884,95.0 165.07246376811594,95.0 168.69565217391306,95.0 172.31884057971013,95.0 175.94202898550725,95.0 179.56521739130437,95.0 183.18840579710144,95.0 183.18840579710144,128.0 186.81159420289856,128.0 190.43478260869566,128.0 194.05797101449278,128.0 197.68115942028984,128.0 201.30434782608694,128.0 204.92753623188406,128.0 208.55072463768116,128.0 212.17391304347828,128.0 215.79710144927537,128.0 219.42028985507244,128.0 223.04347826086956,128.0 226.66666666666666,128.0 230.28985507246378,128.0 233.91304347826087,128.0 237.53623188405797,128.0 241.15942028985506,128.0 244.78260869565216,128.0 248.40579710144928,128.0 252.02898550724638,128.0 252.02898550724638,95.0 255.6521739130435,95.0 259.27536231884056,95.0 262.8985507246377,95.0 266.52173913043475,95.0 270.1449275362319,95.0 273.768115942029,95.0 277.3913043478261,95.0 281.0144927536232,95.0 284.63768115942025,95.0 288.2608695652174,95.0 291.8840579710145,95.0 295.5072463768116,95.0 299.13043478260875,95.0 302.75362318840575,95.0 306.3768115942029,95.0 310.0,95.0 313.6231884057971,95.0 313.6231884057971,95.0 317.2463768115942,95.0 320.8695652173913,95.0 324.49275362318843,95.0 328.11594202898556,95.0 331.73913043478257,95.0 335.3623188405797,95.0 338.9855072463768,95.0 338.9855072463768,95.0 342.6086956521739,95.0 346.231884057971,95.0 349.8550724637681,95.0 353.47826086956525,95.0 357.1014492753623,95.0 360.72463768115944,95.0 364.34782608695656,95.0 367.9710144927536,95.0 371.59420289855075,95.0 375.2173913043478,95.0 378.8405797101449,95.0 382.463768115942,95.0 386.0869565217391,95.0 389.71014492753625,95.0 393.3333333333333,95.0 396.95652173913044,95.0 400.57971014492756,95.0 404.2028985507246,95.0 407.82608695652175,95.0 411.4492753623189,95.0 411.4492753623189,95.0 415.07246376811594,95.0 418.695652173913,95.0 422.3188405797101,95.0 425.94202898550725,95.0 429.5652173913043,95.0 433.18840579710144,95.0 433.18840579710144,95.0 436.81159420289856,95.0 440.4347826086957,95.0 444.05797101449275,95.0 447.6811594202899,95.0 451.304347826087,95.0 454.92753623188406,95.0 458.5507246376811,95.0 462.17391304347825,95.0 465.7971014492754,95.0 469.42028985507244,95.0 469.42028985507244,95.0 473.04347826086956,95.0 476.6666666666667,95.0 480.28985507246375,95.0 483.9130434782609,95.0 487.536231884058,95.0 491.1594202898551,95.0 494.7826086956522,95.0 494.7826086956522,95.0 498.40579710144925,95.0 502.0289855072464,95.0 505.65217391304344,95.0 509.27536231884056,95.0 512.8985507246377,95.0 516.5217391304348,95.0 520.1449275362319,95.0 523.768115942029,95.0 527.3913043478261,95.0 531.0144927536232,95.0 534.6376811594203,95.0 538.2608695652175,95.0 541.8840579710145,95.0 545.5072463768115,95.0 549.1304347826087,95.0 552.7536231884058,95.0 556.3768115942029,95.0 560.0,95.0" stroke="#c9a227" stroke-width="3" /><circle cx="60.0" cy="95.0" fill="#c9a227" r="4" /><circle cx="63.6231884057971" cy="95.0" fill="#c9a227" r="4" /><circle cx="67.2463768115942" cy="95.0" fill="#c9a227" r="4" /><circle cx="70.86956521739131" cy="95.0" fill="#c9a227" r="4" /><circle cx="74.4927536231884" cy="95.0" fill="#c9a227" r="4" /><circle cx="78.1159420289855" cy="95.0" fill="#c9a227" r="4" /><circle cx="81.73913043478261" cy="95.0" fill="#c9a227" r="4" /><circle cx="85.36231884057972" cy="95.0" fill="#c9a227" r="4" /><circle cx="88.98550724637681" cy="95.0" fill="#c9a227" r="4" /><circle cx="92.6086956521739" cy="95.0" fill="#c9a227" r="4" /><circle cx="96.23188405797102" cy="95.0" fill="#c9a227" r="4" /><circle cx="99.85507246376811" cy="95.0" fill="#c9a227" r="4" /><circle cx="103.47826086956522" cy="95.0" fill="#c9a227" r="4" /><circle cx="107.10144927536231" cy="95.0" fill="#c9a227" r="4" /><circle cx="110.72463768115942" cy="95.0" fill="#c9a227" r="4" /><circle cx="114.34782608695653" cy="95.0" fill="#c9a227" r="4" /><circle cx="117.97101449275362" cy="95.0" fill="#c9a227" r="4" /><circle cx="121.59420289855072" cy="95.0" fill="#c9a227" r="4" /><circle cx="125.21739130434783" cy="95.0" fill="#c9a227" r="4" /><circle cx="125.21739130434783" cy="95.0" fill="#c9a227" r="4" /><circle cx="128.84057971014494" cy="95.0" fill="#c9a227" r="4" /><circle cx="132.46376811594203" cy="95.0" fill="#c9a227" r="4" /><circle cx="136.08695652173913" cy="95.0" fill="#c9a227" r="4" /><circle cx="139.71014492753622" cy="95.0" fill="#c9a227" r="4" /><circle cx="143.33333333333331" cy="95.0" fill="#c9a227" r="4" /><circle cx="146.95652173913044" cy="95.0" fill="#c9a227" r="4" /><circle cx="150.57971014492753" cy="95.0" fill="#c9a227" r="4" /><circle cx="154.20289855072463" cy="95.0" fill="#c9a227" r="4" /><circle cx="157.82608695652175" cy="95.0" fill="#c9a227" r="4" /><circle cx="161.44927536231884" cy="95.0" fill="#c9a227" r="4" /><circle cx="165.07246376811594" cy="95.0" fill="#c9a227" r="4" /><circle cx="168.69565217391306" cy="95.0" fill="#c9a227" r="4" /><circle cx="172.31884057971013" cy="95.0" fill="#c9a227" r="4" /><circle cx="175.94202898550725" cy="95.0" fill="#c9a227" r="4" /><circle cx="179.56521739130437" cy="95.0" fill="#c9a227" r="4" /><circle cx="183.18840579710144" cy="95.0" fill="#c9a227" r="4" /><circle cx="183.18840579710144" cy="128.0" fill="#c9a227" r="4" /><circle cx="186.81159420289856" cy="128.0" fill="#c9a227" r="4" /><circle cx="190.43478260869566" cy="128.0" fill="#c9a227" r="4" /><circle cx="194.05797101449278" cy="128.0" fill="#c9a227" r="4" /><circle cx="197.68115942028984" cy="128.0" fill="#c9a227" r="4" /><circle cx="201.30434782608694" cy="128.0" fill="#c9a227" r="4" /><circle cx="204.92753623188406" cy="128.0" fill="#c9a227" r="4" /><circle cx="208.55072463768116" cy="128.0" fill="#c9a227" r="4" /><circle cx="212.17391304347828" cy="128.0" fill="#c9a227" r="4" /><circle cx="215.79710144927537" cy="128.0" fill="#c9a227" r="4" /><circle cx="219.42028985507244" cy="128.0" fill="#c9a227" r="4" /><circle cx="223.04347826086956" cy="128.0" fill="#c9a227" r="4" /><circle cx="226.66666666666666" cy="128.0" fill="#c9a227" r="4" /><circle cx="230.28985507246378" cy="128.0" fill="#c9a227" r="4" /><circle cx="233.91304347826087" cy="128.0" fill="#c9a227" r="4" /><circle cx="237.53623188405797" cy="128.0" fill="#c9a227" r="4" /><circle cx="241.15942028985506" cy="128.0" fill="#c9a227" r="4" /><circle cx="244.78260869565216" cy="128.0" fill="#c9a227" r="4" /><circle cx="248.40579710144928" cy="128.0" fill="#c9a227" r="4" /><circle cx="252.02898550724638" cy="128.0" fill="#c9a227" r="4" /><circle cx="252.02898550724638" cy="95.0" fill="#c9a227" r="4" /><circle cx="255.6521739130435" cy="95.0" fill="#c9a227" r="4" /><circle cx="259.27536231884056" cy="95.0" fill="#c9a227" r="4" /><circle cx="262.8985507246377" cy="95.0" fill="#c9a227" r="4" /><circle cx="266.52173913043475" cy="95.0" fill="#c9a227" r="4" /><circle cx="270.1449275362319" cy="95.0" fill="#c9a227" r="4" /><circle cx="273.768115942029" cy="95.0" fill="#c9a227" r="4" /><circle cx="277.3913043478261" cy="95.0" fill="#c9a227" r="4" /><circle cx="281.0144927536232" cy="95.0" fill="#c9a227" r="4" /><circle cx="284.63768115942025" cy="95.0" fill="#c9a227" r="4" /><circle cx="288.2608695652174" cy="95.0" fill="#c9a227" r="4" /><circle cx="291.8840579710145" cy="95.0" fill="#c9a227" r="4" /><circle cx="295.5072463768116" cy="95.0" fill="#c9a227" r="4" /><circle cx="299.13043478260875" cy="95.0" fill="#c9a227" r="4" /><circle cx="302.75362318840575" cy="95.0" fill="#c9a227" r="4" /><circle cx="306.3768115942029" cy="95.0" fill="#c9a227" r="4" /><circle cx="310.0" cy="95.0" fill="#c9a227" r="4" /><circle cx="313.6231884057971" cy="95.0" fill="#c9a227" r="4" /><circle cx="313.6231884057971" cy="95.0" fill="#c9a227" r="4" /><circle cx="317.2463768115942" cy="95.0" fill="#c9a227" r="4" /><circle cx="320.8695652173913" cy="95.0" fill="#c9a227" r="4" /><circle cx="324.49275362318843" cy="95.0" fill="#c9a227" r="4" /><circle cx="328.11594202898556" cy="95.0" fill="#c9a227" r="4" /><circle cx="331.73913043478257" cy="95.0" fill="#c9a227" r="4" /><circle cx="335.3623188405797" cy="95.0" fill="#c9a227" r="4" /><circle cx="338.9855072463768" cy="95.0" fill="#c9a227" r="4" /><circle cx="338.9855072463768" cy="95.0" fill="#c9a227" r="4" /><circle cx="342.6086956521739" cy="95.0" fill="#c9a227" r="4" /><circle cx="346.231884057971" cy="95.0" fill="#c9a227" r="4" /><circle cx="349.8550724637681" cy="95.0" fill="#c9a227" r="4" /><circle cx="353.47826086956525" cy="95.0" fill="#c9a227" r="4" /><circle cx="357.1014492753623" cy="95.0" fill="#c9a227" r="4" /><circle cx="360.72463768115944" cy="95.0" fill="#c9a227" r="4" /><circle cx="364.34782608695656" cy="95.0" fill="#c9a227" r="4" /><circle cx="367.9710144927536" cy="95.0" fill="#c9a227" r="4" /><circle cx="371.59420289855075" cy="95.0" fill="#c9a227" r="4" /><circle cx="375.2173913043478" cy="95.0" fill="#c9a227" r="4" /><circle cx="378.8405797101449" cy="95.0" fill="#c9a227" r="4" /><circle cx="382.463768115942" cy="95.0" fill="#c9a227" r="4" /><circle cx="386.0869565217391" cy="95.0" fill="#c9a227" r="4" /><circle cx="389.71014492753625" cy="95.0" fill="#c9a227" r="4" /><circle cx="393.3333333333333" cy="95.0" fill="#c9a227" r="4" /><circle cx="396.95652173913044" cy="95.0" fill="#c9a227" r="4" /><circle cx="400.57971014492756" cy="95.0" fill="#c9a227" r="4" /><circle cx="404.2028985507246" cy="95.0" fill="#c9a227" r="4" /><circle cx="407.82608695652175" cy="95.0" fill="#c9a227" r="4" /><circle cx="411.4492753623189" cy="95.0" fill="#c9a227" r="4" /><circle cx="411.4492753623189" cy="95.0" fill="#c9a227" r="4" /><circle cx="415.07246376811594" cy="95.0" fill="#c9a227" r="4" /><circle cx="418.695652173913" cy="95.0" fill="#c9a227" r="4" /><circle cx="422.3188405797101" cy="95.0" fill="#c9a227" r="4" /><circle cx="425.94202898550725" cy="95.0" fill="#c9a227" r="4" /><circle cx="429.5652173913043" cy="95.0" fill="#c9a227" r="4" /><circle cx="433.18840579710144" cy="95.0" fill="#c9a227" r="4" /><circle cx="433.18840579710144" cy="95.0" fill="#c9a227" r="4" /><circle cx="436.81159420289856" cy="95.0" fill="#c9a227" r="4" /><circle cx="440.4347826086957" cy="95.0" fill="#c9a227" r="4" /><circle cx="444.05797101449275" cy="95.0" fill="#c9a227" r="4" /><circle cx="447.6811594202899" cy="95.0" fill="#c9a227" r="4" /><circle cx="451.304347826087" cy="95.0" fill="#c9a227" r="4" /><circle cx="454.92753623188406" cy="95.0" fill="#c9a227" r="4" /><circle cx="458.5507246376811" cy="95.0" fill="#c9a227" r="4" /><circle cx="462.17391304347825" cy="95.0" fill="#c9a227" r="4" /><circle cx="465.7971014492754" cy="95.0" fill="#c9a227" r="4" /><circle cx="469.42028985507244" cy="95.0" fill="#c9a227" r="4" /><circle cx="469.42028985507244" cy="95.0" fill="#c9a227" r="4" /><circle cx="473.04347826086956" cy="95.0" fill="#c9a227" r="4" /><circle cx="476.6666666666667" cy="95.0" fill="#c9a227" r="4" /><circle cx="480.28985507246375" cy="95.0" fill="#c9a227" r="4" /><circle cx="483.9130434782609" cy="95.0" fill="#c9a227" r="4" /><circle cx="487.536231884058" cy="95.0" fill="#c9a227" r="4" /><circle cx="491.1594202898551" cy="95.0" fill="#c9a227" r="4" /><circle cx="494.7826086956522" cy="95.0" fill="#c9a227" r="4" /><circle cx="494.7826086956522" cy="95.0" fill="#c9a227" r="4" /><circle cx="498.40579710144925" cy="95.0" fill="#c9a227" r="4" /><circle cx="502.0289855072464" cy="95.0" fill="#c9a227" r="4" /><circle cx="505.65217391304344" cy="95.0" fill="#c9a227" r="4" /><circle cx="509.27536231884056" cy="95.0" fill="#c9a227" r="4" /><circle cx="512.8985507246377" cy="95.0" fill="#c9a227" r="4" /><circle cx="516.5217391304348" cy="95.0" fill="#c9a227" r="4" /><circle cx="520.1449275362319" cy="95.0" fill="#c9a227" r="4" /><circle cx="523.768115942029" cy="95.0" fill="#c9a227" r="4" /><circle cx="527.3913043478261" cy="95.0" fill="#c9a227" r="4" /><circle cx="531.0144927536232" cy="95.0" fill="#c9a227" r="4" /><circle cx="534.6376811594203" cy="95.0" fill="#c9a227" r="4" /><circle cx="538.2608695652175" cy="95.0" fill="#c9a227" r="4" /><circle cx="541.8840579710145" cy="95.0" fill="#c9a227" r="4" /><circle cx="545.5072463768115" cy="95.0" fill="#c9a227" r="4" /><circle cx="549.1304347826087" cy="95.0" fill="#c9a227" r="4" /><circle cx="552.7536231884058" cy="95.0" fill="#c9a227" r="4" /><circle cx="556.3768115942029" cy="95.0" fill="#c9a227" r="4" /><circle cx="560.0" cy="95.0" fill="#c9a227" r="4" /><text fill="#444" font-size="12" x="50.0" y="280">1995</text><text fill="#444" font-size="12" x="53.6231884057971" y="280">1996</text><text fill="#444" font-size="12" x="57.2463768115942" y="280">1997</text><text fill="#444" font-size="12" x="60.86956521739131" y="280">1998</text><text fill="#444" font-size="12" x="64.4927536231884" y="280">1999</text><text fill="#444" font-size="12" x="68.1159420289855" y="280">2000</text><text fill="#444" font-size="12" x="71.73913043478261" y="280">2001</text><text fill="#444" font-size="12" x="75.36231884057972" y="280">2002</text><text fill="#444" font-size="12" x="78.98550724637681" y="280">2003</text><text fill="#444" font-size="12" x="82.6086956521739" y="280">2004</text><text fill="#444" font-size="12" x="86.23188405797102" y="280">2005</text><text fill="#444" font-size="12" x="89.85507246376811" y="280">2006</text><text fill="#444" font-size="12" x="93.47826086956522" y="280">2007</text><text fill="#444" font-size="12" x="97.10144927536231" y="280">2008</text><text fill="#444" font-size="12" x="100.72463768115942" y="280">2009</text><text fill="#444" font-size="12" x="104.34782608695653" y="280">2010</text><text fill="#444" font-size="12" x="107.97101449275362" y="280">2011</text><text fill="#444" font-size="12" x="111.59420289855072" y="280">2012</text><text fill="#444" font-size="12" x="115.21739130434783" y="280">2013</text><text fill="#444" font-size="12" x="115.21739130434783" y="280">2013</text><text fill="#444" font-size="12" x="118.84057971014494" y="280">2014</text><text fill="#444" font-size="12" x="122.46376811594203" y="280">2015</text><text fill="#444" font-size="12" x="126.08695652173913" y="280">2016</text><text fill="#444" font-size="12" x="129.71014492753622" y="280">2017</text><text fill="#444" font-size="12" x="133.33333333333331" y="280">2018</text><text fill="#444" font-size="12" x="136.95652173913044" y="280">2019</text><text fill="#444" font-size="12" x="140.57971014492753" y="280">2020</text><text fill="#444" font-size="12" x="144.20289855072463" y="280">2021</text><text fill="#444" font-size="12" x="147.82608695652175" y="280">2022</text><text fill="#444" font-size="12" x="151.44927536231884" y="280">2023</text><text fill="#444" font-size="12" x="155.07246376811594" y="280">2024</text><text fill="#444" font-size="12" x="158.69565217391306" y="280">2025</text><text fill="#444" font-size="12" x="162.31884057971013" y="280">2026</text><text fill="#444" font-size="12" x="165.94202898550725" y="280">2027</text><text fill="#444" font-size="12" x="169.56521739130437" y="280">2028</text><text fill="#444" font-size="12" x="173.18840579710144" y="280">2029</text><text fill="#444" font-size="12" x="173.18840579710144" y="280">2029</text><text fill="#444" font-size="12" x="176.81159420289856" y="280">2030</text><text fill="#444" font-size="12" x="180.43478260869566" y="280">2031</text><text fill="#444" font-size="12" x="184.05797101449278" y="280">2032</text><text fill="#444" font-size="12" x="187.68115942028984" y="280">2033</text><text fill="#444" font-size="12" x="191.30434782608694" y="280">2034</text><text fill="#444" font-size="12" x="194.92753623188406" y="280">2035</text><text fill="#444" font-size="12" x="198.55072463768116" y="280">2036</text><text fill="#444" font-size="12" x="202.17391304347828" y="280">2037</text><text fill="#444" font-size="12" x="205.79710144927537" y="280">2038</text><text fill="#444" font-size="12" x="209.42028985507244" y="280">2039</text><text fill="#444" font-size="12" x="213.04347826086956" y="280">2040</text><text fill="#444" font-size="12" x="216.66666666666666" y="280">2041</text><text fill="#444" font-size="12" x="220.28985507246378" y="280">2042</text><text fill="#444" font-size="12" x="223.91304347826087" y="280">2043</text><text fill="#444" font-size="12" x="227.53623188405797" y="280">2044</text><text fill="#444" font-size="12" x="231.15942028985506" y="280">2045</text><text fill="#444" font-size="12" x="234.78260869565216" y="280">2046</text><text fill="#444" font-size="12" x="238.40579710144928" y="280">2047</text><text fill="#444" font-size="12" x="242.02898550724638" y="280">2048</text><text fill="#444" font-size="12" x="242.02898550724638" y="280">2048</text><text fill="#444" font-size="12" x="245.6521739130435" y="280">2049</text><text fill="#444" font-size="12" x="249.27536231884056" y="280">2050</text><text fill="#444" font-size="12" x="252.8985507246377" y="280">2051</text><text fill="#444" font-size="12" x="256.52173913043475" y="280">2052</text><text fill="#444" font-size="12" x="260.1449275362319" y="280">2053</text><text fill="#444" font-size="12" x="263.768115942029" y="280">2054</text><text fill="#444" font-size="12" x="267.3913043478261" y="280">2055</text><text fill="#444" font-size="12" x="271.0144927536232" y="280">2056</text><text fill="#444" font-size="12" x="274.63768115942025" y="280">2057</text><text fill="#444" font-size="12" x="278.2608695652174" y="280">2058</text><text fill="#444" font-size="12" x="281.8840579710145" y="280">2059</text><text fill="#444" font-size="12" x="285.5072463768116" y="280">2060</text><text fill="#444" font-size="12" x="289.13043478260875" y="280">2061</text><text fill="#444" font-size="12" x="292.75362318840575" y="280">2062</text><text fill="#444" font-size="12" x="296.3768115942029" y="280">2063</text><text fill="#444" font-size="12" x="300.0" y="280">2064</text><text fill="#444" font-size="12" x="303.6231884057971" y="280">2065</text><text fill="#444" font-size="12" x="303.6231884057971" y="280">2065</text><text fill="#444" font-size="12" x="307.2463768115942" y="280">2066</text><text fill="#444" font-size="12" x="310.8695652173913" y="280">2067</text><text fill="#444" font-size="12" x="314.49275362318843" y="280">2068</text><text fill="#444" font-size="12" x="318.11594202898556" y="280">2069</text><text fill="#444" font-size="12" x="321.73913043478257" y="280">2070</text><text fill="#444" font-size="12" x="325.3623188405797" y="280">2071</text><text fill="#444" font-size="12" x="328.9855072463768" y="280">2072</text><text fill="#444" font-size="12" x="328.9855072463768" y="280">2072</text><text fill="#444" font-size="12" x="332.6086956521739" y="280">2073</text><text fill="#444" font-size="12" x="336.231884057971" y="280">2074</text><text fill="#444" font-size="12" x="339.8550724637681" y="280">2075</text><text fill="#444" font-size="12" x="343.47826086956525" y="280">2076</text><text fill="#444" font-size="12" x="347.1014492753623" y="280">2077</text><text fill="#444" font-size="12" x="350.72463768115944" y="280">2078</text><text fill="#444" font-size="12" x="354.34782608695656" y="280">2079</text><text fill="#444" font-size="12" x="357.9710144927536" y="280">2080</text><text fill="#444" font-size="12" x="361.59420289855075" y="280">2081</text><text fill="#444" font-size="12" x="365.2173913043478" y="280">2082</text><text fill="#444" font-size="12" x="368.8405797101449" y="280">2083</text><text fill="#444" font-size="12" x="372.463768115942" y="280">2084</text><text fill="#444" font-size="12" x="376.0869565217391" y="280">2085</text><text fill="#444" font-size="12" x="379.71014492753625" y="280">2086</text><text fill="#444" font-size="12" x="383.3333333333333" y="280">2087</text><text fill="#444" font-size="12" x="386.95652173913044" y="280">2088</text><text fill="#444" font-size="12" x="390.57971014492756" y="280">2089</text><text fill="#444" font-size="12" x="394.2028985507246" y="280">2090</text><text fill="#444" font-size="12" x="397.82608695652175" y="280">2091</text><text fill="#444" font-size="12" x="401.4492753623189" y="280">2092</text><text fill="#444" font-size="12" x="401.4492753623189" y="280">2092</text><text fill="#444" font-size="12" x="405.07246376811594" y="280">2093</text><text fill="#444" font-size="12" x="408.695652173913" y="280">2094</text><text fill="#444" font-size="12" x="412.3188405797101" y="280">2095</text><text fill="#444" font-size="12" x="415.94202898550725" y="280">2096</text><text fill="#444" font-size="12" x="419.5652173913043" y="280">2097</text><text fill="#444" font-size="12" x="423.18840579710144" y="280">2098</text><text fill="#444" font-size="12" x="423.18840579710144" y="280">2098</text><text fill="#444" font-size="12" x="426.81159420289856" y="280">2099</text><text fill="#444" font-size="12" x="430.4347826086957" y="280">2100</text><text fill="#444" font-size="12" x="434.05797101449275" y="280">2101</text><text fill="#444" font-size="12" x="437.6811594202899" y="280">2102</text><text fill="#444" font-size="12" x="441.304347826087" y="280">2103</text><text fill="#444" font-size="12" x="444.92753623188406" y="280">2104</text><text fill="#444" font-size="12" x="448.5507246376811" y="280">2105</text><text fill="#444" font-size="12" x="452.17391304347825" y="280">2106</text><text fill="#444" font-size="12" x="455.7971014492754" y="280">2107</text><text fill="#444" font-size="12" x="459.42028985507244" y="280">2108</text><text fill="#444" font-size="12" x="459.42028985507244" y="280">2108</text><text fill="#444" font-size="12" x="463.04347826086956" y="280">2109</text><text fill="#444" font-size="12" x="466.6666666666667" y="280">2110</text><text fill="#444" font-size="12" x="470.28985507246375" y="280">2111</text><text fill="#444" font-size="12" x="473.9130434782609" y="280">2112</text><text fill="#444" font-size="12" x="477.536231884058" y="280">2113</text><text fill="#444" font-size="12" x="481.1594202898551" y="280">2114</text><text fill="#444" font-size="12" x="484.7826086956522" y="280">2115</text><text fill="#444" font-size="12" x="484.7826086956522" y="280">2115</text><text fill="#444" font-size="12" x="488.40579710144925" y="280">2116</text><text fill="#444" font-size="12" x="492.0289855072464" y="280">2117</text><text fill="#444" font-size="12" x="495.65217391304344" y="280">2118</text><text fill="#444" font-size="12" x="499.27536231884056" y="280">2119</text><text fill="#444" font-size="12" x="502.89855072463774" y="280">2120</text><text fill="#444" font-size="12" x="506.52173913043475" y="280">2121</text><text fill="#444" font-size="12" x="510.1449275362319" y="280">2122</text><text fill="#444" font-size="12" x="513.768115942029" y="280">2123</text><text fill="#444" font-size="12" x="517.3913043478261" y="280">2124</text><text fill="#444" font-size="12" x="521.0144927536232" y="280">2125</text><text fill="#444" font-size="12" x="524.6376811594203" y="280">2126</text><text fill="#444" font-size="12" x="528.2608695652175" y="280">2127</text><text fill="#444" font-size="12" x="531.8840579710145" y="280">2128</text><text fill="#444" font-size="12" x="535.5072463768115" y="280">2129</text><text fill="#444" font-size="12" x="539.1304347826087" y="280">2130</text><text fill="#444" font-size="12" x="542.7536231884058" y="280">2131</text><text fill="#444" font-size="12" x="546.3768115942029" y="280">2132</text><text fill="#444" font-size="12" x="550.0" y="280">2133</text><text fill="#444" font-size="16" font-weight="bold" x="60" y="20">Destiny Timeline</text></svg>