<?xml version="1.0" encoding="utf-8" ?>
<svg baseProfile="full" height="300" version="1.1" width="600" xmlns="http://www.w3.org/2000/svg" xmlns:ev="http://www.w3.org/2001/xml-events" xmlns:xlink="http://www.w3.org/1999/xlink"><defs /><rect fill="white" height="300" width="600" x="0" y="0" /><line stroke="#e6d7a5" stroke-width="1" x1="60" x2="560" y1="40.0" y2="40.0" /><line stroke="#e6d7a5" stroke-width="1" x1="60" x2="560" y1="95.0" y2="95.0" /><line stroke="#e6d7a5" stroke-width="1" x1="60" x2="560" y1="150.0" y2="150.0" /><line stroke="#e6d7a5" stroke-width="1" x1="60" x2="560" y1="205.0" y2="205.0" /><line stroke="#e6d7a5" stroke-width="1" x1="60" x2="560" y1="260.0" y2="260.0" /><polyline fill="none" points="60.0,95.0 63.597122302158276,95.0 67.19424460431655,95.0 70.79136690647482,95.0 74.38848920863309,95.0 77.98561151079136,95.0 81.58273381294964,95.0 85.17985611510791,95.0 88.77697841726619,95.0 92.37410071942446,95.0 95.97122302158273,95.0 99.568345323741,95.0 103.16546762589928,95.0 106.76258992805757,95.0 110.35971223021582,95.0 113.9568345323741,95.0 117.55395683453239,95.0 121.15107913669064,95.0 124.74820143884892,95.0 128.3453237410072,95.0 128.3453237410072,95.0 131.94244604316546,95.0 135.53956834532374,95.0 139.136690647482,95.0 142.73381294964028,95.0 146.33093525179856,95.0 149.92805755395682,95.0 153.52517985611513,95.0 157.12230215827338,95.0 160.71942446043164,95.0 164.31654676258995,95.0 167.9136690647482,95.0 171.51079136690646,95.0 175.10791366906477,95.0 178.70503597122303,95.0 182.30215827338128,95.0 185.89928057553956,95.0 189.49640287769785,95.0 189.49640287769785,95.0 193.09352517985613,95.0 196.6906474820144,95.0 200.28776978417264,95.0 203.88489208633092,95.0 207.4820143884892,95.0 211.0791366906475,95.0 214.67625899280577,95.0 214.67625899280577,95.0 218.27338129496403,95.0 221.8705035971223,95.0 225.46762589928056,95.0 229.06474820143885,95.0 232.66187050359713,95.0 236.25899280575538,95.0 239.85611510791367,95.0 243.45323741007195,95.0 247.05035971223023,95.0 250.6474820143885,95.0 254.24460431654677,95.0 257.841726618705,95.0 261.4388489208633,95.0 265.0359712230216,95.0 268.6330935251799,95.0 272.23021582733816,95.0 275.8273381294964,95.0 279.42446043165467,95.0 283.0215827338129,95.0 286.61870503597123,95.0 286.61870503597123,95.0 290.21582733812954,95.0 293.8129496402878,95.0 297.41007194244605,95.0 301.0071942446043,95.0 304.60431654676256,95.0 308.2014388489209,95.0 308.2014388489209,95.0 311.7985611510791,95.0 315.39568345323744,95.0 318.9928057553957,95.0 322.58992805755395,95.0 326.18705035971226,95.0 329.7841726618705,95.0 333.3812949640288,95.0 336.978417266187,95.0 340.5755395683453,95.0 344.1726618705036,95.0 344.1726618705036,95.0 347.76978417266184,95.0 351.36690647482015,95.0 354.9640287769784,95.0 358.56115107913666,95.0 362.158273381295,95.0 365.75539568345323,95.0 369.35251798561154,95.0 369.35251798561154,95.0 372.9496402877698,95.0 376.54676258992805,95.0 380.14388489208636,95.0 383.7410071942446,95.0 387.33812949640287,95.0 390.9352517985611,95.0 394.5323741007194,95.0 398.1294964028777,95.0 401.72661870503595,95.0 405.32374100719426,95.0 408.9208633093525,95.0 412.51798561151077,95.0 416.1151079136691,95.0 419.71223021582733,95.0 423.30935251798564,95.0 426.9064748201439,95.0 430.50359712230215,95.0 434.10071942446046,95.0 434.10071942446046,95.0 437.69784172661866,95.0 441.294964028777,95.0 444.89208633093523,95.0 448.48920863309354,95.0 452.0863309352518,95.0 455.68345323741005,95.0 459.28057553956836,95.0 462.8776978417266,95.0 466.4748201438849,95.0 470.0719424460432,95.0 473.66906474820144,95.0 477.26618705035975,95.0 480.863309352518,95.0 484.4604316546763,95.0 488.0575539568345,95.0 491.65467625899277,95.0 491.65467625899277,95.0 495.2517985611511,95.0 498.84892086330933,95.0 502.44604316546764,95.0 506.0431654676259,95.0 509.64028776978415,95.0 513.2374100719425,95.0 516.8345323741007,95.0 520.4316546762591,95.0 524.0287769784172,95.0 527.6258992805756,95.0 531.2230215827338,95.0 534.8201438848921,95.0 538.4172661870504,95.0 542.0143884892086,95.0 545.6115107913669,95.0 549.2086330935251,95.0 552.8057553956835,95.0 556.4028776978417,95.0 560.0,95.0" stroke="#c9a227" stroke-width="3" /><circle cx="60.0" cy="95.0" fill="#c9a227" r="4" /><circle cx="63.597122302158276" cy="95.0" fill="#c9a227" r="4" /><circle cx="67.19424460431655" cy="95.0" fill="#c9a227" r="4" /><circle cx="70.79136690647482" cy="95.0" fill="#c9a227" r="4" /><circle cx="74.38848920863309" cy="95.0" fill="#c9a227" r="4" /><circle cx="77.98561151079136" cy="95.0" fill="#c9a227" r="4" /><circle cx="81.58273381294964" cy="95.0" fill="#c9a227" r="4" /><circle cx="85.17985611510791" cy="95.0" fill="#c9a227" r="4" /><circle cx="88.77697841726619" cy="95.0" fill="#c9a227" r="4" /><circle cx="92.37410071942446" cy="95.0" fill="#c9a227" r="4" /><circle cx="95.97122302158273" cy="95.0" fill="#c9a227" r="4" /><circle cx="99.568345323741" cy="95.0" fill="#c9a227" r="4" /><circle cx="103.16546762589928" cy="95.0" fill="#c9a227" r="4" /><circle cx="106.76258992805757" cy="95.0" fill="#c9a227" r="4" /><circle cx="110.35971223021582" cy="95.0" fill="#c9a227" r="4" /><circle cx="113.9568345323741" cy="95.0" fill="#c9a227" r="4" /><circle cx="117.55395683453239" cy="95.0" fill="#c9a227" r="4" /><circle cx="121.15107913669064" cy="95.0" fill="#c9a227" r="4" /><circle cx="124.74820143884892" cy="95.0" fill="#c9a227" r="4" /><circle cx="128.3453237410072" cy="95.0" fill="#c9a227" r="4" /><circle cx="128.3453237410072" cy="95.0" fill="#c9a227" r="4" /><circle cx="131.94244604316546" cy="95.0" fill="#c9a227" r="4" /><circle cx="135.53956834532374" cy="95.0" fill="#c9a227" r="4" /><circle cx="139.136690647482" cy="95.0" fill="#c9a227" r="4" /><circle cx="142.73381294964028" cy="95.0" fill="#c9a227" r="4" /><circle cx="146.33093525179856" cy="95.0" fill="#c9a227" r="4" /><circle cx="149.92805755395682" cy="95.0" fill="#c9a227" r="4" /><circle cx="153.52517985611513" cy="95.0" fill="#c9a227" r="4" /><circle cx="157.12230215827338" cy="95.0" fill="#c9a227" r="4" /><circle cx="160.71942446043164" cy="95.0" fill="#c9a227" r="4" /><circle cx="164.31654676258995" cy="95.0" fill="#c9a227" r="4" /><circle cx="167.9136690647482" cy="95.0" fill="#c9a227" r="4" /><circle cx="171.51079136690646" cy="95.0" fill="#c9a227" r="4" /><circle cx="175.10791366906477" cy="95.0" fill="#c9a227" r="4" /><circle cx="178.70503597122303" cy="95.0" fill="#c9a227" r="4" /><circle cx="182.30215827338128" cy="95.0" fill="#c9a227" r="4" /><circle cx="185.89928057553956" cy="95.0" fill="#c9a227" r="4" /><circle cx="189.49640287769785" cy="95.0" fill="#c9a227" r="4" /><circle cx="189.49640287769785" cy="95.0" fill="#c9a227" r="4" /><circle cx="193.09352517985613" cy="95.0" fill="#c9a227" r="4" /><circle cx="196.6906474820144" cy="95.0" fill="#c9a227" r="4" /><circle cx="200.28776978417264" cy="95.0" fill="#c9a227" r="4" /><circle cx="203.88489208633092" cy="95.0" fill="#c9a227" r="4" /><circle cx="207.4820143884892" cy="95.0" fill="#c9a227" r="4" /><circle cx="211.0791366906475" cy="95.0" fill="#c9a227" r="4" /><circle cx="214.67625899280577" cy="95.0" fill="#c9a227" r="4" /><circle cx="214.67625899280577" cy="95.0" fill="#c9a227" r="4" /><circle cx="218.27338129496403" cy="95.0" fill="#c9a227" r="4" /><circle cx="221.8705035971223" cy="95.0" fill="#c9a227" r="4" /><circle cx="225.46762589928056" cy="95.0" fill="#c9a227" r="4" /><circle cx="229.06474820143885" cy="95.0" fill="#c9a227" r="4" /><circle cx="232.66187050359713" cy="95.0" fill="#c9a227" r="4" /><circle cx="236.25899280575538" cy="95.0" fill="#c9a227" r="4" /><circle cx="239.85611510791367" cy="95.0" fill="#c9a227" r="4" /><circle cx="243.45323741007195" cy="95.0" fill="#c9a227" r="4" /><circle cx="247.05035971223023" cy="95.0" fill="#c9a227" r="4" /><circle cx="250.6474820143885" cy="95.0" fill="#c9a227" r="4" /><circle cx="254.24460431654677" cy="95.0" fill="#c9a227" r="4" /><circle cx="257.841726618705" cy="95.0" fill="#c9a227" r="4" /><circle cx="261.4388489208633" cy="95.0" fill="#c9a227" r="4" /><circle cx="265.0359712230216" cy="95.0" fill="#c9a227" r="4" /><circle cx="268.6330935251799" cy="95.0" fill="#c9a227" r="4" /><circle cx="272.23021582733816" cy="95.0" fill="#c9a227" r="4" /><circle cx="275.8273381294964" cy="95.0" fill="#c9a227" r="4" /><circle cx="279.42446043165467" cy="95.0" fill="#c9a227" r="4" /><circle cx="283.0215827338129" cy="95.0" fill="#c9a227" r="4" /><circle cx="286.61870503597123" cy="95.0" fill="#c9a227" r="4" /><circle cx="286.61870503597123" cy="95.0" fill="#c9a227" r="4" /><circle cx="290.21582733812954" cy="95.0" fill="#c9a227" r="4" /><circle cx="293.8129496402878" cy="95.0" fill="#c9a227" r="4" /><circle cx="297.41007194244605" cy="95.0" fill="#c9a227" r="4" /><circle cx="301.0071942446043" cy="95.0" fill="#c9a227" r="4" /><circle cx="304.60431654676256" cy="95.0" fill="#c9a227" r="4" /><circle cx="308.2014388489209" cy="95.0" fill="#c9a227" r="4" /><circle cx="308.2014388489209" cy="95.0" fill="#c9a227" r="4" /><circle cx="311.7985611510791" cy="95.0" fill="#c9a227" r="4" /><circle cx="315.39568345323744" cy="95.0" fill="#c9a227" r="4" /><circle cx="318.9928057553957" cy="95.0" fill="#c9a227" r="4" /><circle cx="322.58992805755395" cy="95.0" fill="#c9a227" r="4" /><circle cx="326.18705035971226" cy="95.0" fill="#c9a227" r="4" /><circle cx="329.7841726618705" cy="95.0" fill="#c9a227" r="4" /><circle cx="333.3812949640288" cy="95.0" fill="#c9a227" r="4" /><circle cx="336.978417266187" cy="95.0" fill="#c9a227" r="4" /><circle cx="340.5755395683453" cy="95.0" fill="#c9a227" r="4" /><circle cx="344.1726618705036" cy="95.0" fill="#c9a227" r="4" /><circle cx="344.1726618705036" cy="95.0" fill="#c9a227" r="4" /><circle cx="347.76978417266184" cy="95.0" fill="#c9a227" r="4" /><circle cx="351.36690647482015" cy="95.0" fill="#c9a227" r="4" /><circle cx="354.9640287769784" cy="95.0" fill="#c9a227" r="4" /><circle cx="358.56115107913666" cy="95.0" fill="#c9a227" r="4" /><circle cx="362.158273381295" cy="95.0" fill="#c9a227" r="4" /><circle cx="365.75539568345323" cy="95.0" fill="#c9a227" r="4" /><circle cx="369.35251798561154" cy="95.0" fill="#c9a227" r="4" /><circle cx="369.35251798561154" cy="95.0" fill="#c9a227" r="4" /><circle cx="372.9496402877698" cy="95.0" fill="#c9a227" r="4" /><circle cx="376.54676258992805" cy="95.0" fill="#c9a227" r="4" /><circle cx="380.14388489208636" cy="95.0" fill="#c9a227" r="4" /><circle cx="383.7410071942446" cy="95.0" fill="#c9a227" r="4" /><circle cx="387.33812949640287" cy="95.0" fill="#c9a227" r="4" /><circle cx="390.9352517985611" cy="95.0" fill="#c9a227" r="4" /><circle cx="394.5323741007194" cy="95.0" fill="#c9a227" r="4" /><circle cx="398.1294964028777" cy="95.0" fill="#c9a227" r="4" /><circle cx="401.72661870503595" cy="95.0" fill="#c9a227" r="4" /><circle cx="405.32374100719426" cy="95.0" fill="#c9a227" r="4" /><circle cx="408.9208633093525" cy="95.0" fill="#c9a227" r="4" /><circle cx="412.51798561151077" cy="95.0" fill="#c9a227" r="4" /><circle cx="416.1151079136691" cy="95.0" fill="#c9a227" r="4" /><circle cx="419.71223021582733" cy="95.0" fill="#c9a227" r="4" /><circle cx="423.30935251798564" cy="95.0" fill="#c9a227" r="4" /><circle cx="426.9064748201439" cy="95.0" fill="#c9a227" r="4" /><circle cx="430.50359712230215" cy="95.0" fill="#c9a227" r="4" /><circle cx="434.10071942446046" cy="95.0" fill="#c9a227" r="4" /><circle cx="434.10071942446046" cy="95.0" fill="#c9a227" r="4" /><circle cx="437.69784172661866" cy="95.0" fill="#c9a227" r="4" /><circle cx="441.294964028777" cy="95.0" fill="#c9a227" r="4" /><circle cx="444.89208633093523" cy="95.0" fill="#c9a227" r="4" /><circle cx="448.48920863309354" cy="95.0" fill="#c9a227" r="4" /><circle cx="452.0863309352518" cy="95.0" fill="#c9a227" r="4" /><circle cx="455.68345323741005" cy="95.0" fill="#c9a227" r="4" /><circle cx="459.28057553956836" cy="95.0" fill="#c9a227" r="4" /><circle cx="462.8776978417266" cy="95.0" fill="#c9a227" r="4" /><circle cx="466.4748201438849" cy="95.0" fill="#c9a227" r="4" /><circle cx="470.0719424460432" cy="95.0" fill="#c9a227" r="4" /><circle cx="473.66906474820144" cy="95.0" fill="#c9a227" r="4" /><circle cx="477.26618705035975" cy="95.0" fill="#c9a227" r="4" /><circle cx="480.863309352518" cy="95.0" fill="#c9a227" r="4" /><circle cx="484.4604316546763" cy="95.0" fill="#c9a227" r="4" /><circle cx="488.0575539568345" cy="95.0" fill="#c9a227" r="4" /><circle cx="491.65467625899277" cy="95.0" fill="#c9a227" r="4" /><circle cx="491.65467625899277" cy="95.0" fill="#c9a227" r="4" /><circle cx="495.2517985611511" cy="95.0" fill="#c9a227" r="4" /><circle cx="498.84892086330933" cy="95.0" fill="#c9a227" r="4" /><circle cx="502.44604316546764" cy="95.0" fill="#c9a227" r="4" /><circle cx="506.0431654676259" cy="95.0" fill="#c9a227" r="4" /><circle cx="509.64028776978415" cy="95.0" fill="#c9a227" r="4" /><circle cx="513.2374100719425" cy="95.0" fill="#c9a227" r="4" /><circle cx="516.8345323741007" cy="95.0" fill="#c9a227" r="4" /><circle cx="520.4316546762591" cy="95.0" fill="#c9a227" r="4" /><circle cx="524.0287769784172" cy="95.0" fill="#c9a227" r="4" /><circle cx="527.6258992805756" cy="95.0" fill="#c9a227" r="4" /><circle cx="531.2230215827338" cy="95.0" fill="#c9a227" r="4" /><circle cx="534.8201438848921" cy="95.0" fill="#c9a227" r="4" /><circle cx="538.4172661870504" cy="95.0" fill="#c9a227" r="4" /><circle cx="542.0143884892086" cy="95.0" fill="#c9a227" r="4" /><circle cx="545.6115107913669" cy="95.0" fill="#c9a227" r="4" /><circle cx="549.2086330935251" cy="95.0" fill="#c9a227" r="4" /><circle cx="552.8057553956835" cy="95.0" fill="#c9a227" r="4" /><circle cx="556.4028776978417" cy="95.0" fill="#c9a227" r="4" /><circle cx="560.0" cy="95.0" fill="#c9a227" r="4" /><text fill="#444" font-size="12" x="50.0" y="280">1993</text><text fill="#444" font-size="12" x="53.597122302158276" y="280">1994</text><text fill="#444" font-size="12" x="57.19424460431655" y="280">1995</text><text fill="#444" font-size="12" x="60.79136690647482" y="280">1996</text><text fill="#444" font-size="12" x="64.38848920863309" y="280">1997</text><text fill="#444" font-size="12" x="67.98561151079136" y="280">1998</text><text fill="#444" font-size="12" x="71.58273381294964" y="280">1999</text><text fill="#444" font-size="12" x="75.17985611510791" y="280">2000</text><text fill="#444" font-size="12" x="78.77697841726619" y="280">2001</text><text fill="#444" font-size="12" x="82.37410071942446" y="280">2002</text><text fill="#444" font-size="12" x="85.97122302158273" y="280">2003</text><text fill="#444" font-size="12" x="89.568345323741" y="280">2004</text><text fill="#444" font-size="12" x="93.16546762589928" y="280">2005</text><text fill="#444" font-size="12" x="96.76258992805757" y="280">2006</text><text fill="#444" font-size="12" x="100.35971223021582" y="280">2007</text><text fill="#444" font-size="12" x="103.9568345323741" y="280">2008</text><text fill="#444" font-size="12" x="107.55395683453239" y="280">2009</text><text fill="#444" font-size="12" x="111.15107913669064" y="280">2010</text><text fill="#444" font-size="12" x="114.74820143884892" y="280">2011</text><text fill="#444" font-size="12" x="118.3453237410072" y="280">2012</text><text fill="#444" font-size="12" x="118.3453237410072" y="280">2012</text><text fill="#444" font-size="12" x="121.94244604316546" y="280">2013</text><text fill="#444" font-size="12" x="125.53956834532374" y="280">2014</text><text fill="#444" font-size="12" x="129.136690647482" y="280">2015</text><text fill="#444" font-size="12" x="132.73381294964028" y="280">2016</text><text fill="#444" font-size="12" x="136.33093525179856" y="280">2017</text><text fill="#444" font-size="12" x="139.92805755395682" y="280">2018</text><text fill="#444" font-size="12" x="143.52517985611513" y="280">2019</text><text fill="#444" font-size="12" x="147.12230215827338" y="280">2020</text><text fill="#444" font-size="12" x="150.71942446043164" y="280">2021</text><text fill="#444" font-size="12" x="154.31654676258995" y="280">2022</text><text fill="#444" font-size="12" x="157.9136690647482" y="280">2023</text><text fill="#444" font-size="12" x="161.51079136690646" y="280">2024</text><text fill="#444" font-size="12" x="165.10791366906477" y="280">2025</text><text fill="#444" font-size="12" x="168.70503597122303" y="280">2026</text><text fill="#444" font-size="12" x="172.30215827338128" y="280">2027</text><text fill="#444" font-size="12" x="175.89928057553956" y="280">2028</text><text fill="#444" font-size="12" x="179.49640287769785" y="280">2029</text><text fill="#444" font-size="12" x="179.49640287769785" y="280">2029</text><text fill="#444" font-size="12" x="183.09352517985613" y="280">2030</text><text fill="#444" font-size="12" x="186.6906474820144" y="280">2031</text><text fill="#444" font-size="12" x="190.28776978417264" y="280">2032</text><text fill="#444" font-size="12" x="193.88489208633092" y="280">2033</text><text fill="#444" font-size="12" x="197.4820143884892" y="280">2034</text><text fill="#444" font-size="12" x="201.0791366906475" y="280">2035</text><text fill="#444" font-size="12" x="204.67625899280577" y="280">2036</text><text fill="#444" font-size="12" x="204.67625899280577" y="280">2036</text><text fill="#444" font-size="12" x="208.27338129496403" y="280">2037</text><text fill="#444" font-size="12" x="211.8705035971223" y="280">2038</text><text fill="#444" font-size="12" x="215.46762589928056" y="280">2039</text><text fill="#444" font-size="12" x="219.06474820143885" y="280">2040</text><text fill="#444" font-size="12" x="222.66187050359713" y="280">2041</text><text fill="#444" font-size="12" x="226.25899280575538" y="280">2042</text><text fill="#444" font-size="12" x="229.85611510791367" y="280">2043</text><text fill="#444" font-size="12" x="233.45323741007195" y="280">2044</text><text fill="#444" font-size="12" x="237.05035971223023" y="280">2045</text><text fill="#444" font-size="12" x="240.6474820143885" y="280">2046</text><text fill="#444" font-size="12" x="244.24460431654677" y="280">2047</text><text fill="#444" font-size="12" x="247.84172661870502" y="280">2048</text><text fill="#444" font-size="12" x="251.43884892086328" y="280">2049</text><text fill="#444" font-size="12" x="255.0359712230216" y="280">2050</text><text fill="#444" font-size="12" x="258.6330935251799" y="280">2051</text><text fill="#444" font-size="12" x="262.23021582733816" y="280">2052</text><text fill="#444" font-size="12" x="265.8273381294964" y="280">2053</text><text fill="#444" font-size="12" x="269.42446043165467" y="280">2054</text><text fill="#444" font-size="12" x="273.0215827338129" y="280">2055</text><text fill="#444" font-size="12" x="276.61870503597123" y="280">2056</text><text fill="#444" font-size="12" x="276.61870503597123" y="280">2056</text><text fill="#444" font-size="12" x="280.21582733812954" y="280">2057</text><text fill="#444" font-size="12" x="283.8129496402878" y="280">2058</text><text fill="#444" font-size="12" x="287.41007194244605" y="280">2059</text><text fill="#444" font-size="12" x="291.0071942446043" y="280">2060</text><text fill="#444" font-size="12" x="294.60431654676256" y="280">2061</text><text fill="#444" font-size="12" x="298.2014388489209" y="280">2062</text><text fill="#444" font-size="12" x="298.2014388489209" y="280">2062</text><text fill="#444" font-size="12" x="301.7985611510791" y="280">2063</text><text fill="#444" font-size="12" x="305.39568345323744" y="280">2064</text><text fill="#444" font-size="12" x="308.9928057553957" y="280">2065</text><text fill="#444" font-size="12" x="312.58992805755395" y="280">2066</text><text fill="#444" font-size="12" x="316.18705035971226" y="280">2067</text><text fill="#444" font-size="12" x="319.7841726618705" y="280">2068</text><text fill="#444" font-size="12" x="323.3812949640288" y="280">2069</text><text fill="#444" font-size="12" x="326.978417266187" y="280">2070</text><text fill="#444" font-size="12" x="330.5755395683453" y="280">2071</text><text fill="#444" font-size="12" x="334.1726618705036" y="280">2072</text><text fill="#444" font-size="12" x="334.1726618705036" y="280">2072</text><text fill="#444" font-size="12" x="337.76978417266184" y="280">2073</text><text fill="#444" font-size="12" x="341.36690647482015" y="280">2074</text><text fill="#444" font-size="12" x="344.9640287769784" y="280">2075</text><text fill="#444" font-size="12" x="348.56115107913666" y="280">2076</text><text fill="#444" font-size="12" x="352.158273381295" y="280">2077</text><text fill="#444" font-size="12" x="355.75539568345323" y="280">2078</text><text fill="#444" font-size="12" x="359.35251798561154" y="280">2079</text><text fill="#444" font-size="12" x="359.35251798561154" y="280">2079</text><text fill="#444" font-size="12" x="362.9496402877698" y="280">2080</text><text fill="#444" font-size="12" x="366.54676258992805" y="280">2081</text><text fill="#444" font-size="12" x="370.14388489208636" y="280">2082</text><text fill="#444" font-size="12" x="373.7410071942446" y="280">2083</text><text fill="#444" font-size="12" x="377.33812949640287" y="280">2084</text><text fill="#444" font-size="12" x="380.9352517985611" y="280">2085</text><text fill="#444" font-size="12" x="384.5323741007194" y="280">2086</text><text fill="#444" font-size="12" x="388.1294964028777" y="280">2087</text><text fill="#444" font-size="12" x="391.72661870503595" y="280">2088</text><text fill="#444" font-size="12" x="395.32374100719426" y="280">2089</text><text fill="#444" font-size="12" x="398.9208633093525" y="280">2090</text><text fill="#444" font-size="12" x="402.51798561151077" y="280">2091</text><text fill="#444" font-size="12" x="406.1151079136691" y="280">2092</text><text fill="#444" font-size="12" x="409.71223021582733" y="280">2093</text><text fill="#444" font-size="12" x="413.30935251798564" y="280">2094</text><text fill="#444" font-size="12" x="416.9064748201439" y="280">2095</text><text fill="#444" font-size="12" x="420.50359712230215" y="280">2096</text><text fill="#444" font-size="12" x="424.10071942446046" y="280">2097</text><text fill="#444" font-size="12" x="424.10071942446046" y="280">2097</text><text fill="#444" font-size="12" x="427.69784172661866" y="280">2098</text><text fill="#444" font-size="12" x="431.294964028777" y="280">2099</text><text fill="#444" font-size="12" x="434.89208633093523" y="280">2100</text><text fill="#444" font-size="12" x="438.48920863309354" y="280">2101</text><text fill="#444" font-size="12" x="442.0863309352518" y="280">2102</text><text fill="#444" font-size="12" x="445.68345323741005" y="280">2103</text><text fill="#444" font-size="12" x="449.28057553956836" y="280">2104</text><text fill="#444" font-size="12" x="452.8776978417266" y="280">2105</text><text fill="#444" font-size="12" x="456.4748201438849" y="280">2106</text><text fill="#444" font-size="12" x="460.0719424460432" y="280">2107</text><text fill="#444" font-size="12" x="463.66906474820144" y="280">2108</text><text fill="#444" font-size="12" x="467.26618705035975" y="280">2109</text><text fill="#444" font-size="12" x="470.863309352518" y="280">2110</text><text fill="#444" font-size="12" x="474.4604316546763" y="280">2111</text><text fill="#444" font-size="12" x="478.0575539568345" y="280">2112</text><text fill="#444" font-size="12" x="481.65467625899277" y="280">2113</text><text fill="#444" font-size="12" x="481.65467625899277" y="280">2113</text><text fill="#444" font-size="12" x="485.2517985611511" y="280">2114</text><text fill="#444" font-size="12" x="488.84892086330933" y="280">2115</text><text fill="#444" font-size="12" x="492.44604316546764" y="280">2116</text><text fill="#444" font-size="12" x="496.0431654676259" y="280">2117</text><text fill="#444" font-size="12" x="499.64028776978415" y="280">2118</text><text fill="#444" font-size="12" x="503.23741007194246" y="280">2119</text><text fill="#444" font-size="12" x="506.8345323741007" y="280">2120</text><text fill="#444" font-size="12" x="510.4316546762591" y="280">2121</text><text fill="#444" font-size="12" x="514.0287769784172" y="280">2122</text><text fill="#444" font-size="12" x="517.6258992805756" y="280">2123</text><text fill="#444" font-size="12" x="521.2230215827338" y="280">2124</text><text fill="#444" font-size="12" x="524.8201438848921" y="280">2125</text><text fill="#444" font-size="12" x="528.4172661870504" y="280">2126</text><text fill="#444" font-size="12" x="532.0143884892086" y="280">2127</text><text fill="#444" font-size="12" x="535.6115107913669" y="280">2128</text><text fill="#444" font-size="12" x="539.2086330935251" y="280">2129</text><text fill="#444" font-size="12" x="542.8057553956835" y="280">2130</text><text fill="#444" font-size="12" x="546.4028776978417" y="280">2131</text><text fill="#444" font-size="12" x="550.0" y="280">2132</text><text fill="#444" font-size="16" font-weight="bold" x="60" y="20">Destiny Timeline</text></svg>